<svg xmlns="http://www.w3.org/2000/svg" viewBox="0 0 103.35 30"><title>Asset 1</title><g id="Layer_2" data-name="Layer 2"><g id="Layer_5" data-name="Layer 5"><polygon points="10.82 12.37 10.82 30 5.61 30 5.61 12.37 0 12.37 0 7.65 16.43 7.65 16.43 12.37 10.82 12.37"/><path d="M82.71,14.83c0-1.75-.6-2.72-3.12-2.72h-3V25.54h3c2.52,0,3.12-1,3.12-2.72ZM80.19,30H71.53V7.65h8.66c5.51,0,7.56,2.78,7.56,5.8V24.19c0,3-2,5.81-7.56,5.81"/><path d="M30.58,16.24c0,1.68-.54,2.45-2.69,2.45h-4V12.2h4c2.19,0,2.69.73,2.69,2.26ZM37.76,30l-5.4-7.65c2.25-.94,3.25-2.82,3.25-5.61V14c0-4.2-2-6.34-7.45-6.34h-9.3V30h5V23.05h1.7a2.64,2.64,0,0,1,2.11,1.22L31.79,30Z"/><path d="M56.23,21.44l2.58-9.36,2.55,9.36ZM62.17,7.65H55.46L48.64,30h5.24l.88-3.19a1.87,1.87,0,0,1,2-1.17h5.86L63.78,30H69Z"/><path d="M88.58,0c-.77,0-1.06.53-.64,1.18l6.84,10.43a.85.85,0,0,0,1.54,0l6.83-10.43c.42-.65.14-1.18-.64-1.18Z"/><rect x="40.61" y="7.65" width="5.34" height="22.35"/></g></g></svg>